<?xml version="1.0" encoding="utf-8"?>
<!-- Svg Vector Icons : http://www.onlinewebfonts.com/icon -->
<!DOCTYPE svg PUBLIC "-//W3C//DTD SVG 1.1//EN" "http://www.w3.org/Graphics/SVG/1.1/DTD/svg11.dtd">
<svg version="1.1" xmlns="http://www.w3.org/2000/svg" xmlns:xlink="http://www.w3.org/1999/xlink" x="0px" y="0px" viewBox="0 0 256 256" enable-background="new 0 0 256 256" xml:space="preserve">
<metadata> Svg Vector Icons : http://www.onlinewebfonts.com/icon </metadata>
<g><g><g><path fill="#000000" d="M85.7,27.6C64.8,29.9,44.4,40.6,31,56.2c-31.3,36.5-27,90.7,9.7,121.4c10.5,8.8,21.7,14.4,35,17.6c5.8,1.4,5.2,0.9,14.2,12.8c8.5,11.3,13.7,17.6,15.9,19.1c2.4,1.6,4.7,2.1,6.5,1.4c0.8-0.3,6.5-6.8,15.1-17l13.6-16.5l15.1-0.2c11.6-0.1,16.2-0.4,19.8-1.1c28.9-5.3,52.7-24.2,63.8-50.5c4.4-10.3,6.4-20.4,6.4-32.2c0-4.3-0.3-9.7-0.6-11.8C240.9,71,223.5,47.6,198,35.5c-9-4.3-17.8-6.8-28.1-7.9C164.1,26.9,91.3,26.9,85.7,27.6z M87.9,79.9c2.2,0.9,3.3,2.6,3.3,5c0,2.1-1,3.7-2.8,4.6c-0.7,0.3-5.2,0.5-13.1,0.5c-6.7,0-12.8,0.2-13.8,0.5c-6.9,1.9-9.2,11.9-3.9,17.4c2.4,2.5,2.7,2.6,15.4,2.9c7.3,0.2,12.8,0.5,14,0.9c1,0.3,2.9,1.5,4,2.6c4.3,4,5.9,9.7,5.5,20.1c-0.2,4.8-0.5,6.8-1.4,9.1c-1.5,3.9-3.7,6.7-6.7,8.2l-2.4,1.3l-16.7,0.1l-16.7,0.1l-1.7-1.7c-2.9-2.9-2.1-6.9,1.6-8.5c1.3-0.5,4.9-0.7,16.4-0.7h14.8l0.8-1.3c0.7-1,0.9-2.6,1-7.2c0.2-7-0.1-9.9-1.4-11.2c-0.9-0.9-1.7-0.9-11.6-0.9c-14.2,0-17.3-0.8-22.7-6.2c-10-10-7-27.9,5.6-33.8c4.2-2,6.2-2.2,19.3-2.3C83.5,79.2,86.6,79.4,87.9,79.9z M135.2,80.8c6.9,2.6,11.9,8.4,13.4,15.6c0.3,1.6,0.5,9.3,0.5,20.2c0,22-0.3,23.7-5.9,29.8c-8.2,9-22.1,9.1-30.5,0.1c-2.8-3-4.2-5.5-5.2-9.5c-0.9-3.5-1.1-36.5-0.2-40.6c2.2-10.4,11.9-17.7,22.4-16.8C131.4,79.7,133.9,80.3,135.2,80.8z M203.9,80.1c3.4,1.7,4,5.6,1.3,8.3l-1.7,1.7h-12.7c-11.3,0-13,0.1-14.7,0.9c-4.2,1.9-6.5,6.5-5.7,11.4c0.5,3.2,1.8,5.2,4.1,6.8l2,1.3l12.1,0.2c11.2,0.2,12.3,0.3,14.6,1.4c1.4,0.6,3.2,1.8,4,2.7c3.5,3.4,5.4,10.9,4.9,19.9c-0.5,8.9-2.9,14-7.8,16.8l-2.6,1.4l-16.2,0.1c-11.4,0.1-16.7,0-17.6-0.4c-3.8-1.6-4-7.3-0.3-9.5c0.8-0.5,5.3-0.7,16.7-0.9l15.5-0.2l0.7-1.5c0.5-1.1,0.7-3.3,0.7-8.7c0-6.6-0.1-7.3-1-8.6l-1-1.4l-12-0.2c-13-0.3-14-0.5-18.4-3.5c-6.5-4.4-9.4-10.5-9-18.9c0.2-5.7,2-9.9,5.9-13.7c5.3-5.3,8.8-6.2,24.8-6.2C200.7,79.2,202.4,79.3,203.9,80.1z"/><path fill="#000000" d="M124.4,90.8c-2.4,0.8-4.6,2.9-5.8,5.4c-0.8,1.8-0.9,3.5-0.9,20v18l1.3,2.6c0.8,1.7,2,3.1,3.3,3.9c1.7,1.1,2.5,1.3,5.8,1.3c3.3,0,4-0.1,5.8-1.4c1.3-0.9,2.5-2.3,3.3-3.9l1.2-2.5v-18c0-16.4-0.1-18.2-0.9-20C135.2,91.3,129.6,89,124.4,90.8z"/></g></g></g>
</svg>